<svg width="60" height="34" viewBox="0 0 60 34" fill="none" xmlns="http://www.w3.org/2000/svg">
<path d="M0 8.31141H4.61372L3.16345 4.30833H7.40401L6.23361 0.517273C11.4834 0.864998 16.1565 2.73932 20.6515 5.15644C16.7502 4.11326 12.9167 2.84958 8.72706 2.32375C9.08327 3.44326 9.42251 4.38466 9.67695 5.35151C11.2488 11.4409 12.798 17.5389 14.3246 23.6453C14.5536 24.4934 14.4433 25.6807 14.9776 26.2405C15.5119 26.8002 16.6145 26.6052 17.4711 26.7239C20.9059 27.2073 24.256 27.9282 27.3092 29.7177C27.9042 30.082 28.4712 30.4902 29.0054 30.939C22.2364 30.4493 15.4377 31.3143 9.00694 33.4833C7.06476 24.7902 4.46954 16.3006 0 8.31141ZM5.59753 5.57201C5.90285 6.30987 6.1488 6.89507 6.38627 7.48875C8.89541 14.1369 10.9359 20.9526 12.4927 27.8858C12.7047 28.7339 13.0524 28.912 13.8666 28.8866C16.0632 28.8187 18.2598 28.8103 20.4564 28.8866C21.754 28.8866 23.0517 29.1495 24.3493 29.2937C24.113 29.0674 23.82 28.9091 23.5012 28.8357C20.6704 28.1392 17.7541 27.8536 14.8419 27.9876C13.9938 27.9876 13.697 27.7416 13.4934 26.9529C11.6446 19.9645 9.77872 13.0015 7.93832 6.04696C7.84503 5.69923 7.70933 5.36847 7.59059 5.00378L5.59753 5.57201ZM11.4071 30.7694L5.0293 8.97294L2.8751 9.65991C6.03229 16.7877 8.51399 24.1959 10.2876 31.7871L15.4356 30.4301L15.3847 30.1842L11.4071 30.7694Z" fill="#00ABFF"/>
<path d="M50.9206 2.10293L38.8265 5.16461C43.4996 2.75598 48.1557 0.88165 53.4395 0.5L52.2606 4.29954H56.5011L55.0169 8.27718H59.6307C55.2544 16.3003 52.5829 24.7475 50.6577 33.5C44.1902 31.3021 37.3389 30.4619 30.532 31.032C32.0639 29.6489 33.9093 28.6592 35.909 28.1484C38.4533 27.4869 41.1249 27.0459 43.7456 26.5964C44.5173 26.4607 44.8481 26.2656 45.0177 25.409C46.3837 17.778 48.3084 10.2576 50.7764 2.90864C50.8188 2.78142 50.8273 2.64572 50.9206 2.10293ZM52.1079 4.98651C51.9807 5.31727 51.8535 5.58867 51.7687 5.83462C51.2429 7.72591 50.6916 9.60871 50.1997 11.5085C48.871 16.648 47.5536 21.7904 46.2475 26.9356C46.0609 27.6565 45.7217 27.9025 44.9244 27.9279C42.5921 28.0042 40.2598 28.1739 37.936 28.4113C36.9598 28.572 35.9962 28.8015 35.0524 29.0983L46.9938 28.5555C48.8936 20.9225 50.8866 13.1029 54.0586 5.5293L52.1079 4.98651ZM49.4109 31.7953C51.1646 24.195 53.641 16.7799 56.8065 9.65112L54.6607 8.98111C52.5065 16.3173 50.4202 23.5517 48.2829 30.7436L44.424 30.1924V30.4468L49.4109 31.7953Z" fill="#00ABFF"/>
<path d="M5.59741 5.57158L7.59047 4.98639C7.70921 5.35108 7.84491 5.68184 7.9382 6.02957C9.7786 12.9841 11.6275 19.9471 13.434 26.9185C13.6375 27.7073 13.9004 27.9872 14.7825 27.9532C17.6946 27.8192 20.6109 28.1049 23.4417 28.8013C23.7605 28.8748 24.0535 29.033 24.2898 29.2593C22.9922 29.1151 21.6946 28.8862 20.3969 28.8522C18.2003 28.7759 16.0037 28.7844 13.8071 28.8522C12.959 28.8522 12.6452 28.7165 12.4332 27.8515C10.8923 20.9455 8.87175 14.1555 6.38616 7.53072C6.14868 6.89464 5.90273 6.30944 5.59741 5.57158Z" fill="white"/>
<path d="M11.407 30.7692L15.3846 30.167L15.4355 30.413L10.2875 31.7869C8.5139 24.1956 6.0322 16.7875 2.875 9.65969L5.0292 8.97272L11.407 30.7692Z" fill="white"/>
<path d="M52.1078 4.98639L54.0584 5.5631C50.8865 13.1367 48.8934 20.9563 46.9936 28.5893L35.0522 29.1321C35.996 28.8353 36.9596 28.6058 37.9358 28.4451C40.2596 28.2077 42.592 28.038 44.9243 27.9617C45.7215 27.9617 46.0607 27.6903 46.2473 26.9694C47.5534 21.8242 48.8708 16.6818 50.1995 11.5423C50.6914 9.64252 51.2427 7.75971 51.7685 5.86843C51.8533 5.60551 51.9805 5.33411 52.1078 4.98639Z" fill="white"/>
<path d="M49.411 31.7952L44.3901 30.4297V30.1753L48.249 30.7266C50.3524 23.5346 52.4896 16.3087 54.6268 8.96405L56.7726 9.63406C53.6177 16.7695 51.1526 24.1903 49.411 31.7952Z" fill="white"/>
</svg>
