<?xml version="1.0" encoding="utf-8"?>
<svg xmlns="http://www.w3.org/2000/svg" width="2466" height="860" viewBox="0 0 2466 860" fill="none">
<g clip-path="url(#clip0)">
<path d="M1334.23 113.276C1407.23 108.682 1475.12 160.242 1513.41 228.139C1551.7 295.525 1560.38 380.268 1549.15 457.864C1537.92 535.97 1506.27 606.93 1466.96 673.295C1428.16 739.66 1381.19 800.92 1319.42 808.067C1257.65 815.724 1181.08 769.779 1123.9 736.086C1067.24 701.883 1029.97 680.442 980.45 665.637C930.932 650.833 870.182 643.175 843.126 610.503C816.58 578.342 824.748 521.676 832.405 469.095C840.063 416.513 847.72 368.526 873.756 335.344C900.302 302.672 945.226 284.804 987.087 271.021C1028.44 257.237 1066.72 247.538 1124.41 212.824C1182.61 178.11 1261.23 117.871 1334.23 113.276Z" fill="#F3F6E6"/>
<rect x="964" y="235" width="452.734" height="451" fill="#F3F6E6" stroke="#4E505E" stroke-width="8"/>
<rect x="964" y="235" width="452.734" height="85.0079" stroke="#4E505E" stroke-width="8"/>
<rect x="1250" y="285" width="34" height="8" fill="#4E505E"/>
<rect x="1360.66" y="260" width="41" height="8" transform="rotate(45 1360.66 260)" fill="#4E505E"/>
<rect x="1390.11" y="265.689" width="41" height="8" transform="rotate(135 1390.11 265.689)" fill="#4E505E"/>
<rect x="1306" y="264" width="27" height="27" stroke="#4E505E" stroke-width="8"/>
<path d="M1348.93 547.729L1348.93 547.73C1349.02 547.895 1349.02 548.105 1348.93 548.27L1348.93 548.271L1316.66 604.761L1316.66 604.762C1316.57 604.922 1316.41 605 1316.27 605H1251.73C1251.59 605 1251.43 604.923 1251.34 604.761L1219.07 548.27L1219.07 548.27C1218.98 548.105 1218.98 547.895 1219.07 547.73L1219.07 547.729L1251.34 491.239L1251.34 491.238C1251.43 491.078 1251.59 491 1251.73 491H1316.27C1316.41 491 1316.57 491.077 1316.66 491.239C1316.66 491.239 1316.66 491.239 1316.66 491.239L1348.93 547.729ZM1249.07 548C1249.07 567.407 1264.7 583.263 1284 583.263C1303.3 583.263 1318.93 567.407 1318.93 548C1318.93 528.593 1303.3 512.737 1284 512.737C1264.7 512.737 1249.07 528.593 1249.07 548Z" fill="#F487B4" stroke="#4E505E" stroke-width="8"/>
<rect x="1272" y="381" width="149" height="70" fill="#4E505E"/>
<rect x="1308" y="631" width="108" height="52" fill="#4E505E"/>
<rect x="1276" y="357" width="227" height="76" fill="#A8C5FC" stroke="#4E505E" stroke-width="8"/>
<rect x="1324" y="648" width="113" height="76" fill="#FCEC7F" stroke="#4E505E" stroke-width="8"/>
<line x1="813.569" y1="649.823" x2="876.305" y2="601.823" stroke="#4E505E" stroke-width="8"/>
<line x1="835.69" y1="601.734" x2="876.69" y2="572.734" stroke="#4E505E" stroke-width="8"/>
<circle cx="990" cy="348" r="6" fill="#4E505E"/>
<circle cx="990" cy="382" r="6" fill="#4E505E"/>
<circle cx="990" cy="523" r="6" fill="#4E505E"/>
<circle cx="990" cy="416" r="6" fill="#4E505E"/>
<circle cx="990" cy="557" r="6" fill="#4E505E"/>
<circle cx="990" cy="450" r="6" fill="#4E505E"/>
<circle cx="990" cy="591" r="6" fill="#4E505E"/>
<circle cx="990" cy="484" r="6" fill="#4E505E"/>
<circle cx="990" cy="625" r="6" fill="#4E505E"/>
<circle cx="1024" cy="348" r="6" fill="#4E505E"/>
<circle cx="1024" cy="382" r="6" fill="#4E505E"/>
<circle cx="1024" cy="523" r="6" fill="#4E505E"/>
<circle cx="1024" cy="416" r="6" fill="#4E505E"/>
<circle cx="1024" cy="557" r="6" fill="#4E505E"/>
<circle cx="1024" cy="450" r="6" fill="#4E505E"/>
<circle cx="1024" cy="591" r="6" fill="#4E505E"/>
<circle cx="1024" cy="484" r="6" fill="#4E505E"/>
<circle cx="1024" cy="625" r="6" fill="#4E505E"/>
<circle cx="1058" cy="348" r="6" fill="#4E505E"/>
<circle cx="1058" cy="382" r="6" fill="#4E505E"/>
<circle cx="1058" cy="523" r="6" fill="#4E505E"/>
<circle cx="1058" cy="416" r="6" fill="#4E505E"/>
<circle cx="1058" cy="557" r="6" fill="#4E505E"/>
<circle cx="1058" cy="450" r="6" fill="#4E505E"/>
<circle cx="1058" cy="591" r="6" fill="#4E505E"/>
<circle cx="1058" cy="484" r="6" fill="#4E505E"/>
<circle cx="1058" cy="625" r="6" fill="#4E505E"/>
<circle cx="1092" cy="348" r="6" fill="#4E505E"/>
<circle cx="1092" cy="382" r="6" fill="#4E505E"/>
<circle cx="1092" cy="523" r="6" fill="#4E505E"/>
<circle cx="1092" cy="416" r="6" fill="#4E505E"/>
<circle cx="1092" cy="557" r="6" fill="#4E505E"/>
<circle cx="1092" cy="450" r="6" fill="#4E505E"/>
<circle cx="1092" cy="591" r="6" fill="#4E505E"/>
<circle cx="1092" cy="484" r="6" fill="#4E505E"/>
<circle cx="1092" cy="625" r="6" fill="#4E505E"/>
<circle cx="990" cy="348" r="6" fill="#4E505E"/>
<circle cx="990" cy="382" r="6" fill="#4E505E"/>
<circle cx="990" cy="523" r="6" fill="#4E505E"/>
<circle cx="990" cy="416" r="6" fill="#4E505E"/>
<circle cx="990" cy="557" r="6" fill="#4E505E"/>
<circle cx="990" cy="450" r="6" fill="#4E505E"/>
<circle cx="990" cy="591" r="6" fill="#4E505E"/>
<circle cx="990" cy="484" r="6" fill="#4E505E"/>
<circle cx="990" cy="625" r="6" fill="#4E505E"/>
<circle cx="1024" cy="348" r="6" fill="#4E505E"/>
<circle cx="1024" cy="382" r="6" fill="#4E505E"/>
<circle cx="1024" cy="523" r="6" fill="#4E505E"/>
<circle cx="1024" cy="416" r="6" fill="#4E505E"/>
<circle cx="1024" cy="557" r="6" fill="#4E505E"/>
<circle cx="1024" cy="450" r="6" fill="#4E505E"/>
<circle cx="1024" cy="591" r="6" fill="#4E505E"/>
<circle cx="1024" cy="484" r="6" fill="#4E505E"/>
<circle cx="1024" cy="625" r="6" fill="#4E505E"/>
<circle cx="1058" cy="348" r="6" fill="#4E505E"/>
<circle cx="1058" cy="382" r="6" fill="#4E505E"/>
<circle cx="1058" cy="523" r="6" fill="#4E505E"/>
<circle cx="1058" cy="416" r="6" fill="#4E505E"/>
<circle cx="1058" cy="557" r="6" fill="#4E505E"/>
<circle cx="1058" cy="450" r="6" fill="#4E505E"/>
<circle cx="1058" cy="591" r="6" fill="#4E505E"/>
<circle cx="1058" cy="484" r="6" fill="#4E505E"/>
<circle cx="1058" cy="625" r="6" fill="#4E505E"/>
<circle cx="1092" cy="348" r="6" fill="#4E505E"/>
<circle cx="1092" cy="382" r="6" fill="#4E505E"/>
<circle cx="1092" cy="523" r="6" fill="#4E505E"/>
<circle cx="1092" cy="416" r="6" fill="#4E505E"/>
<circle cx="1092" cy="557" r="6" fill="#4E505E"/>
<circle cx="1092" cy="450" r="6" fill="#4E505E"/>
<circle cx="1092" cy="591" r="6" fill="#4E505E"/>
<circle cx="1092" cy="484" r="6" fill="#4E505E"/>
<circle cx="1092" cy="625" r="6" fill="#4E505E"/>
<rect x="960" y="295" width="114" height="77" fill="#4E505E"/>
<rect x="940" y="281" width="108" height="76" fill="#94DDCC" stroke="#4E505E" stroke-width="8"/>
<circle cx="1336.5" cy="168.5" r="8.5" fill="#94DDCC" stroke="#4E505E" stroke-width="8"/>
<circle cx="1457" cy="140" r="12" fill="#FCEC7F" stroke="#4E505E" stroke-width="8"/>
<path d="M1176.18 765.303L1176.18 765.303C1165.84 767.431 1157.8 775.616 1155.72 786.032C1155.72 786.032 1155.72 786.032 1155.72 786.032L1154 794.628L1152.28 786.032L1152.28 786.032C1150.2 775.616 1142.16 767.43 1131.82 765.303L1131.82 765.303L1123.05 763.5L1131.82 761.697L1131.82 761.697C1142.16 759.57 1150.2 751.384 1152.28 740.968L1152.28 740.968L1154 732.372L1155.72 740.968L1155.72 740.968C1157.8 751.384 1165.84 759.57 1176.18 761.697L1176.18 761.697L1184.95 763.5L1176.18 765.303Z" fill="#FCEC7F" stroke="#4E505E" stroke-width="8"/>
<path d="M1437.7 167C1428.32 180.396 1422.09 198.323 1432.13 213.254C1439.4 224.07 1454.72 233.419 1468.02 233.598C1480.19 233.763 1478.77 217.093 1468.79 217.093C1451.68 217.093 1464.32 241.224 1469.56 246.457C1480.58 257.483 1496.27 265.078 1509.76 272.463C1524.97 280.785 1540.32 287.999 1556.88 293.096" stroke="#4E505E" stroke-width="8" stroke-linecap="round" stroke-linejoin="round" stroke-dasharray="20 20"/>
<path d="M1006.25 534.483L1008.55 535.733L977.312 560.721L975.546 562.135L975.847 564.377L977.782 578.791L978.102 581.174L980.356 582.009L993.991 587.064L996.113 587.85L997.88 586.436L1029.11 561.449L1029.83 563.96L1033.62 562.879L1029.83 563.96C1035.24 582.945 1028.78 603.166 1013.37 615.495C1003.18 623.648 990.441 627.337 977.473 625.896L977.472 625.896C973.093 625.409 968.838 624.346 964.78 622.731L962.619 621.87L960.802 623.323L865.813 699.317L865.813 699.317C862.371 702.071 858.085 703.312 853.706 702.826C849.326 702.339 845.417 700.186 842.664 696.744L835.626 687.945C832.873 684.503 831.631 680.215 832.118 675.835C832.605 671.454 834.758 667.544 838.2 664.791L838.2 664.791L933.19 588.797L935.006 587.344L934.641 585.047C933.403 577.245 934.071 569.243 936.614 561.706L936.614 561.706C939.597 552.862 945.042 545.091 952.368 539.23L952.368 539.23C962.558 531.077 975.291 527.388 988.26 528.83C994.617 529.536 1000.67 531.438 1006.25 534.483Z" fill="#A8C5FC" stroke="#4E505E" stroke-width="8"/>
</g>
<defs>
<clipPath id="clip0">
<rect width="2466" height="860" fill="white"/>
</clipPath>
</defs>
</svg>